<?xml version="1.0" encoding="UTF-8" standalone="no"?>
<svg
   xmlns:dc="http://purl.org/dc/elements/1.1/"
   xmlns:cc="http://creativecommons.org/ns#"
   xmlns:rdf="http://www.w3.org/1999/02/22-rdf-syntax-ns#"
   xmlns:svg="http://www.w3.org/2000/svg"
   xmlns="http://www.w3.org/2000/svg"
   viewBox="0 0 30.887501 32.987499"
   height="32.987499"
   width="30.887501"
   xml:space="preserve"
   version="1.1"
   id="svg2"><metadata
     id="metadata8"><rdf:RDF><cc:Work
         rdf:about=""><dc:format>image/svg+xml</dc:format><dc:type
           rdf:resource="http://purl.org/dc/dcmitype/StillImage" /></cc:Work></rdf:RDF></metadata><defs
     id="defs6"><clipPath
       id="clipPath18"
       clipPathUnits="userSpaceOnUse"><path
         id="path20"
         d="M 0,0 0,264 247,264 247,0 0,0 Z" /></clipPath><clipPath
       id="clipPath24"
       clipPathUnits="userSpaceOnUse"><path
         id="path26"
         d="m 182.242,91.2188 c 31.238,17.1012 55.098,30.1682 57.266,31.3472 6.472,3.547 13.262,12.59 0,19.817 -4.258,2.328 -27.481,14.988 -57.305,31.258 l -41.027,-41.336 41.066,-41.0862 0,0 z" /></clipPath><linearGradient
       id="linearGradient28"
       spreadMethod="pad"
       gradientTransform="matrix(-33.3487,65.4507,-65.4507,-33.3487,208.77,104.736)"
       gradientUnits="userSpaceOnUse"
       y2="0"
       x2="1"
       y1="0"
       x1="0"><stop
         id="stop30"
         offset="0"
         style="stop-opacity:1;stop-color:#fbc576" /><stop
         id="stop32"
         offset="1"
         style="stop-opacity:1;stop-color:#f68065" /></linearGradient><clipPath
       id="clipPath40"
       clipPathUnits="userSpaceOnUse"><path
         id="path42"
         d="M 141.176,132.305 9.96484,0.0898438 C 12.9258,-0.273438 16.4883,0.496094 20.5898,2.74219 29.0781,7.39062 120.215,57.2734 182.242,91.2188 l -41.066,41.0862 0,0 z" /></clipPath><linearGradient
       id="linearGradient44"
       spreadMethod="pad"
       gradientTransform="matrix(-126.982,-136.172,136.172,-126.982,160.298,114.472)"
       gradientUnits="userSpaceOnUse"
       y2="0"
       x2="1"
       y1="0"
       x1="0"><stop
         id="stop46"
         offset="0"
         style="stop-opacity:1;stop-color:#ee334a" /><stop
         id="stop48"
         offset="1"
         style="stop-opacity:1;stop-color:#7448a8" /></linearGradient><clipPath
       id="clipPath56"
       clipPathUnits="userSpaceOnUse"><path
         id="path58"
         d="m 141.176,132.305 41.015,41.336 c 0,0 -152.4722,83.191 -161.6012,88.171 -3.5078,1.915 -7.332,2.583 -10.72261,1.829 L 141.176,132.305 Z" /></clipPath><linearGradient
       id="linearGradient60"
       spreadMethod="pad"
       gradientTransform="matrix(-128.987,133.57,-133.57,-128.987,160.947,151.411)"
       gradientUnits="userSpaceOnUse"
       y2="0"
       x2="1"
       y1="0"
       x1="0"><stop
         id="stop62"
         offset="0"
         style="stop-opacity:1;stop-color:#d8ed92" /><stop
         id="stop64"
         offset="1"
         style="stop-opacity:1;stop-color:#57c6b8" /></linearGradient><clipPath
       id="clipPath72"
       clipPathUnits="userSpaceOnUse"><path
         id="path74"
         d="M 141.176,132.305 9.86719,263.637 C 4.44531,262.426 0,257.734 0,248.301 0,232.973 0,28.7188 0,15.8477 0,6.96484 3.49609,0.722656 9.96094,0.0898438 L 141.176,132.305 Z" /></clipPath><linearGradient
       id="linearGradient76"
       spreadMethod="pad"
       gradientTransform="matrix(-1.15e-5,263.545,-263.545,-1.15e-5,70.5811,0.0970078)"
       gradientUnits="userSpaceOnUse"
       y2="0"
       x2="1"
       y1="0"
       x1="0"><stop
         id="stop78"
         offset="0"
         style="stop-opacity:1;stop-color:#87d6c6" /><stop
         id="stop80"
         offset="1"
         style="stop-opacity:1;stop-color:#337491" /></linearGradient></defs><g
     transform="matrix(1.25,0,0,-1.25,0,32.9875)"
     id="g10"><g
       transform="scale(0.1,0.1)"
       id="g12"><g
         id="g14"><g
           clip-path="url(#clipPath18)"
           id="g16"><g
             clip-path="url(#clipPath24)"
             id="g22"><path
               id="path34"
               style="fill:url(#linearGradient28);fill-opacity:1;fill-rule:nonzero;stroke:none"
               d="m 181,91 0,1 -1,0 0,1 -1,0 0,1 -1,0 0,1 -1,0 0,1 -1,0 0,1 -1,0 0,1 -1,0 0,1 -1,0 0,1 -1,0 0,1 -1,0 0,1 -1,0 0,1 -1,0 0,1 -1,0 0,1 -1,0 0,1 -1,0 0,1 -1,0 0,1 -1,0 0,1 -1,0 0,1 -1,0 0,1 -1,0 0,1 -1,0 0,1 -1,0 0,1 -1,0 0,1 -1,0 0,1 -1,0 0,1 -1,0 0,1 -1,0 0,1 -1,0 0,1 -1,0 0,1 -1,0 0,1 -1,0 0,1 -1,0 0,1 -1,0 0,1 -1,0 0,1 -1,0 0,1 -1,0 0,1 -1,0 0,1 -1,0 0,1 -1,0 0,1 -1,0 0,3 1,0 0,1 1,0 0,1 1,0 0,1 1,0 0,1 1,0 0,1 1,0 0,1 1,0 0,1 1,0 0,1 1,0 0,1 1,0 0,1 1,0 0,1 1,0 0,1 1,0 0,1 1,0 0,1 1,0 0,1 1,0 0,1 1,0 0,1 1,0 0,1 1,0 0,1 1,0 0,1 1,0 0,1 1,0 0,1 1,0 0,1 1,0 0,1 1,0 0,1 1,0 0,1 1,0 0,1 1,0 0,1 1,0 0,1 1,0 0,1 1,0 0,1 1,0 0,1 1,0 0,1 1,0 0,1 1,0 0,1 1,0 0,1 1,0 0,1 1,0 0,1 1,0 0,1 1,0 0,1 3,0 0,-1 2,0 0,-1 2,0 0,-1 1,0 0,-1 2,0 0,-1 2,0 0,-1 2,0 0,-1 2,0 0,-1 2,0 0,-1 1,0 0,-1 2,0 0,-1 2,0 0,-1 2,0 0,-1 2,0 0,-1 2,0 0,-1 1,0 0,-1 2,0 0,-1 2,0 0,-1 2,0 0,-1 2,0 0,-1 2,0 0,-1 1,0 0,-1 2,0 0,-1 2,0 0,-1 2,0 0,-1 2,0 0,-1 2,0 0,-1 1,0 0,-1 2,0 0,-1 2,0 0,-1 2,0 0,-1 2,0 0,-1 1,0 0,-1 1,0 0,-1 2,0 0,-2 1,0 0,-1 1,0 0,-9 -1,0 0,-1 -1,0 0,-1 -1,0 0,-1 -1,0 0,-1 -1,0 0,-1 -1,0 0,-1 -2,0 0,-1 -2,0 0,-1 -2,0 0,-1 -2,0 0,-1 -1,0 0,-1 -2,0 0,-1 -2,0 0,-1 -2,0 0,-1 -2,0 0,-1 -1,0 0,-1 -2,0 0,-1 -2,0 0,-1 -2,0 0,-1 -2,0 0,-1 -2,0 0,-1 -1,0 0,-1 -2,0 0,-1 -2,0 0,-1 -2,0 0,-1 -2,0 0,-1 -2,0 0,-1 -1,0 0,-1 -2,0 0,-1 -2,0 0,-1 -2,0 0,-1 -2,0 0,-1 -2,0 0,-1 -1,0 0,-1 -2,0 0,-1 -2,0 0,-1 -2,0 0,-1" /></g></g></g><g
         id="g36"><g
           clip-path="url(#clipPath40)"
           id="g38"><path
             id="path50"
             style="fill:url(#linearGradient44);fill-opacity:1;fill-rule:nonzero;stroke:none"
             d="M 141.176,132.305 9.96484,0.0898438 C 12.9258,-0.273438 16.4883,0.496094 20.5898,2.74219 29.0781,7.39062 120.215,57.2734 182.242,91.2188 l -41.066,41.0862 0,0" /></g></g><g
         id="g52"><g
           clip-path="url(#clipPath56)"
           id="g54"><path
             id="path66"
             style="fill:url(#linearGradient60);fill-opacity:1;fill-rule:nonzero;stroke:none"
             d="m 141.176,132.305 41.015,41.336 c 0,0 -152.4722,83.191 -161.6012,88.171 -3.5078,1.915 -7.332,2.583 -10.72261,1.829 L 141.176,132.305" /></g></g><g
         id="g68"><g
           clip-path="url(#clipPath72)"
           id="g70"><path
             id="path82"
             style="fill:url(#linearGradient76);fill-opacity:1;fill-rule:nonzero;stroke:none"
             d="M 141.176,132.305 9.86719,263.637 C 4.44531,262.426 0,257.734 0,248.301 0,232.973 0,28.7188 0,15.8477 0,6.96484 3.49609,0.722656 9.96094,0.0898438 L 141.176,132.305" /></g></g></g></g></svg>